# xmcd
#
# Track frame offsets:
#	150
#	8719
#	18103
#	55435
#	65779
#	80962
#	88424
#	100004
#	107544
#	113460
#	124582
#	134274
#	141260
#	149028
#	161037
#	167374
#	169452
#
# Disc length: 2372 seconds
#
# Revision: 0
# Processed by: cddbd v1.5.2PL0 Copyright (c) Steve Scherf et al.
# Submitted via: audiograbber 1.83.01
#
DISCID=ee094211
DTITLE=Vaclav Neckar - Silene smutna princezna
DYEAR=1992
DGENRE=Soundtrack
TTITLE0=Predehra
TTITLE1=Uvod do pohadky
TTITLE2=jedeme na namluvy
TTITLE3=Znam jednu krasnou zahradu
TTITLE4=Situace se komplikuje
TTITLE5=Kujme pikle
TTITLE6=Co nas to jen napadlo...
TTITLE7=Miluju a maluju
TTITLE8=Princezna se vyznava...
TTITLE9=Slza z tvare pada
TTITLE10=Silene smutna princezna...?
TTITLE11=Ja uz to vim
TTITLE12=To se nemelo stat
TTITLE13=Valka neni zadna legrace, ale konec vse napravi
TTITLE14=Znam jednu krasnou princeznu
TTITLE15=neco navic
TTITLE16=Dohra
EXTD=
EXTT0=
EXTT1=
EXTT2=
EXTT3=
EXTT4=
EXTT5=
EXTT6=
EXTT7=
EXTT8=
EXTT9=
EXTT10=
EXTT11=
EXTT12=
EXTT13=
EXTT14=
EXTT15=
EXTT16=
PLAYORDER=
